<?xml version="1.0" encoding="UTF-8"?><svg id="Layer_2" xmlns="http://www.w3.org/2000/svg" viewBox="0 0 2627.79 891.79"><defs><style>.cls-1{fill:#beaf87;}</style></defs><g id="Layer_1-2"><path class="cls-1" d="M270.01,36.07c98.28-42.55,212.08-47.62,313.83-14.29,109.23,34.95,202.62,114.42,256.55,215.49h-38.9c-43.48-72.67-108.79-132.24-186.23-166.81-96.55-44.04-210.35-48.24-309.99-11.75-95.93,34.51-177.7,106.32-224.58,196.81-42,79.72-56.1,173.55-40.33,262.24,17.13,99.52,72.98,191.55,152.77,253.28,76.82,60.24,175.65,91.41,273.13,86.16,136.69-5.32,266.26-85.04,335.29-202.74,12.93,0,25.85.06,38.84.12-40.08,74.47-100.94,137.74-174.73,179.37-84.12,48-184.19,66.98-280.12,53.75-94.75-12.49-184.75-57.03-252.66-124.26C62.99,694.83,16.67,602.74,3.99,505.57c-12.12-89.62,3.53-182.83,45.09-263.23,46.82-91.54,126.3-165.88,220.93-206.27Z"/><path class="cls-1" d="M682.48,25.55c100.44,39.09,184.56,116.4,234.41,211.65-11.5,0-23.01,0-34.45.06-32.29-65.13-78.74-123.33-136.38-167.86-20.1-16.2-42.92-28.45-63.58-43.85Z"/><path class="cls-1" d="M77.47,355.64c29.19-123.08,124.32-228.6,244.68-268.31-45.83,29.63-90.49,62.59-123.82,106.51-66.3,83.06-97.66,192.91-84.98,298.49,11.19,100.75,62.04,196.31,139.22,262,22.33,20.04,48.61,34.76,73.05,52.02-79.54-27.15-149.92-80.59-196-150.98-58.02-86.9-77.44-198.29-52.14-299.73Z"/><path class="cls-1" d="M882.45,654.5c11.44,0,22.95,0,34.51.06-50.1,95.68-134.71,173.06-235.59,212.21,84.98-50.41,158.09-122.46,201.07-212.27Z"/><path class="cls-1" d="M209.47,397.24c.34-49.34,47.01-70.68,90.02-70.68,46.67,0,97.35,19.01,97.35,74.35,0,59.34-44.67,70.68-93.69,70.68-19.34,0-50.67,5-50.67,30.34v20h145.02v41.01h-189.03v-61.35c0-53.68,48.67-69.68,94.68-69.68,17.67,0,50.01-3,50.01-30.01,0-25.34-23-37.34-53.01-37.34-23,0-46.68,11.67-47.01,32.68h-43.68Z"/><path class="cls-1" d="M417.5,525.6h35v-156.03h-36.34v-40.01h80.02v196.04h32.34v37.34h-111.02v-37.34Z"/><path class="cls-1" d="M697.88,385.9c-8-13.33-30.01-26-55.34-26-32.67,0-48.34,13.67-48.34,31,0,20.34,24,26.01,52.01,29.34,48.68,6,94.02,18.67,94.02,74.35,0,52.01-46.01,74.34-98.02,74.34-47.68,0-84.35-14.67-101.69-57.34l36.67-19.01c10.34,25.67,37.34,37.01,65.68,37.01s53.68-9.67,53.68-35c0-22.01-23-31.01-54.01-34.34-47.68-5.67-91.69-18.34-91.69-70.68,0-48.01,47.34-67.68,90.35-68.02,36.34,0,74.02,10.34,91.69,46.34l-35.01,18Z"/><path class="cls-1" d="M834.55,369.56h-74.02v-40.01h192.04v40.01h-74.01v193.37h-44.01v-193.37Z"/><path class="cls-1" d="M1252.29,533.59c-24.01,23.67-55.01,34.68-88.68,34.68-86.68,0-123.36-59.68-123.69-120.36-.33-61.01,39.35-123.02,123.69-123.02,31.67,0,61.68,12,85.68,35.67l-29.34,28.34c-15.34-15-36.01-22-56.35-22-56.35,0-80.68,42-80.35,81.01.33,38.68,22.67,79.02,80.35,79.02,20.34,0,43.34-8.34,58.68-23.67l30.01,30.34Z"/><path class="cls-1" d="M1450.97,562.94h-174.7v-233.38h174.7v42.67h-131.03v53.68h126.36v41.01h-126.36v52.68h131.03v43.34Z"/><path class="cls-1" d="M1645.33,329.23h44.01v233.71h-27.34v.33l-122.69-157.7v157.37h-44.01v-233.38h35.67l114.35,144.69v-145.02Z"/><path class="cls-1" d="M1790.01,369.56h-74.01v-40.01h192.04v40.01h-74.02v193.37h-44.01v-193.37Z"/><path class="cls-1" d="M2146.4,329.89v133.69c0,69.01-42.35,104.35-101.02,104.35s-103.69-34.01-103.69-104.35v-133.69h43.68v133.69c0,42.01,24,64.34,60.35,64.34s57.01-24.33,57.01-64.34v-133.69h43.68Z"/><path class="cls-1" d="M2396.43,562.94h-52.34l-68.02-78.02h-42.34v78.02h-44v-233.71c37.01,0,74.02.33,111.01.33,55.01.33,84.02,37.01,84.02,77.35,0,32.01-14.67,64.34-59.01,73.35l70.68,79.68v3ZM2233.73,370.57v74.68h67.01c28.01,0,40.02-18.67,40.02-37.34s-12.34-37.34-40.02-37.34h-67.01Z"/><path class="cls-1" d="M2512.76,425.91l62.02-96.35h53.01v2l-93.02,135.03v96.35h-44v-96.35l-89.69-135.03v-2h52.35l59.34,96.35Z"/><path class="cls-1" d="M1081.23,746.09v-137.74h99.11v25.03h-73.1v37.64h69.16v24.04h-69.16v51.04h-26.01Z"/><path class="cls-1" d="M1259.59,746.09v-137.93h25.81v137.93h-25.81Z"/><path class="cls-1" d="M1459.61,607.96h26.01v138.13h-16.16v.2l-72.51-93.2v93.01h-26.01v-137.93h21.09l67.59,85.52v-85.72Z"/><path class="cls-1" d="M1666.54,720.08h-72.12l-11.82,26.01h-28.18l61.88-137.93h28.38l61.87,137.93h-28.38l-11.62-26.01ZM1630.48,637.12l-25.62,58.72h51.23l-25.62-58.72Z"/><path class="cls-1" d="M1868.15,607.96h26.01v138.13h-16.16v.2l-72.51-93.2v93.01h-26.01v-137.93h21.09l67.59,85.52v-85.72Z"/><path class="cls-1" d="M2098.73,728.75c-14.19,13.99-32.51,20.49-52.41,20.49-51.23,0-72.91-35.27-73.11-71.13-.2-36.06,23.25-72.71,73.11-72.71,18.72,0,36.45,7.09,50.64,21.08l-17.34,16.75c-9.06-8.87-21.28-13.01-33.3-13.01-33.3,0-47.69,24.83-47.49,47.88.2,22.85,13.4,46.7,47.49,46.7,12.02,0,25.62-4.93,34.68-13.99l17.73,17.93Z"/><path class="cls-1" d="M2172.85,746.09v-137.93h25.81v137.93h-25.81Z"/><path class="cls-1" d="M2380.16,720.08h-72.12l-11.83,26.01h-28.18l61.88-137.93h28.38l61.87,137.93h-28.38l-11.62-26.01ZM2344.1,637.12l-25.62,58.72h51.23l-25.62-58.72Z"/><path class="cls-1" d="M2519.11,608.16v113.9h70.94v24.04h-96.95v-137.93h26.01Z"/></g></svg>